# xmcd
#
# Track frame offsets:
#	150
#	17670
#	35735
#	51377
#	66952
#	78277
#	92645
#	110032
#	127685
#	139992
#	155782
#
# Disc length: 2289
#
# Revision: 2
# Processed by: cddbd v1.5.1PL0 Copyright (c) Steve Scherf et al.
# Submitted via: audiograbber 1.80
# Normalized: r1:TDELIM( - )
#
DISCID=9708ef0b
DTITLE=Universal Country Music Compilation - Country Radio Compilation
DYEAR=1900
DGENRE=
TTITLE0=Jason McCoy - There's More Where That Came From
TTITLE1=Farmer's Daughter - Freeway
TTITLE2=Trisha Yearwood (With Garth Brooks) - Where Your Road Leads
TTITLE3=Mark Chestnut - Wherever You Are
TTITLE4=George Strait - We Really Shouldn't Be Doing This
TTITLE5=Vince Gill - Kindly Keep It Country
TTITLE6=Randy Travis - Spirit Of A Boy, Wisdom Of A Man
TTITLE7=Allison Moorer - Alabama Song
TTITLE8=Danni Leigh - If The Jukebox Took Teardrops
TTITLE9=Linda Davis - I'm Yours
TTITLE10=Chris Knight - It Ain't Easy Being Me
EXTD=
EXTT0=
EXTT1=
EXTT2=
EXTT3=
EXTT4=
EXTT5=
EXTT6=
EXTT7=
EXTT8=
EXTT9=
EXTT10=
PLAYORDER=
